HIERARCHY
ROOT SpineBase
{
  OFFSET 0.000000 0.000000 0.000000
  CHANNELS 6 Xposition Yposition Zposition Zrotation Xrotation Yrotation
  JOINT SpineMid
  {
    OFFSET 0.000000 31.232990 0.000000
    CHANNELS 3 Zrotation Xrotation Yrotation
    JOINT SpineShoulder
    {
      OFFSET 0.171410 23.257364 -0.747057
      CHANNELS 3 Zrotation Xrotation Yrotation
      JOINT Neck
      {
        OFFSET 0.107451 7.701136 -0.588632
        CHANNELS 3 Zrotation Xrotation Yrotation
        JOINT Head
        {
          OFFSET 5.180813 13.915686 -0.136348
          CHANNELS 3 Zrotation Xrotation Yrotation
          End Site
          {
            OFFSET 0 0 0
          }
        }
      }
      JOINT ShoulderLeft
      {
        OFFSET -12.404228 -2.724952 -11.464065
        CHANNELS 3 Zrotation Xrotation Yrotation
        JOINT ElbowLeft
        {
          OFFSET -6.469214 -25.404026 -3.971114
          CHANNELS 3 Zrotation Xrotation Yrotation
          JOINT WristLeft
          {
            OFFSET 1.646132 -25.922036 -5.317603
            CHANNELS 3 Zrotation Xrotation Yrotation
            JOINT HandLeft
            {
              OFFSET 1.234045 -5.775419 -0.541237
              CHANNELS 3 Zrotation Xrotation Yrotation
              JOINT HandTipLeft
              {
                OFFSET 0.829304 -6.825170 0.301117
                CHANNELS 3 Zrotation Xrotation Yrotation
                End Site
                {
                  OFFSET 0 0 0
                }
              }
              JOINT ThumbLeft
              {
                OFFSET -2.807290 -0.969151 -3.529324
                CHANNELS 3 Zrotation Xrotation Yrotation
                End Site
                {
                  OFFSET 0 0 0
                }
              }
            }
          }
        }
      }
      JOINT ShoulderRight
      {
        OFFSET 13.954284 -6.028709 9.471032
        CHANNELS 3 Zrotation Xrotation Yrotation
        JOINT ElbowRight
        {
          OFFSET 1.788501 -29.103995 4.366707
          CHANNELS 3 Zrotation Xrotation Yrotation
          JOINT WristRight
          {
            OFFSET 0.133896 -24.488523 -6.047490
            CHANNELS 3 Zrotation Xrotation Yrotation
            JOINT HandRight
            {
              OFFSET -0.951738 -6.603623 -1.347749
              CHANNELS 3 Zrotation Xrotation Yrotation
              JOINT HandTipRight
              {
                OFFSET -0.102564 -4.528863 -1.585076
                CHANNELS 3 Zrotation Xrotation Yrotation
                End Site
                {
                  OFFSET 0 0 0
                }
              }
              JOINT ThumbRight
              {
                OFFSET 3.386437 0.366040 -1.099759
                CHANNELS 3 Zrotation Xrotation Yrotation
                End Site
                {
                  OFFSET 0 0 0
                }
              }
            }
          }
        }
      }
    }
  }
  JOINT HipLeft
  {
    OFFSET -5.113138 1.654271 -7.859041
    CHANNELS 3 Zrotation Xrotation Yrotation
    JOINT KneeLeft
    {
      OFFSET -9.579201 -32.907691 -3.182662
      CHANNELS 3 Zrotation Xrotation Yrotation
      JOINT AnkleLeft
      {
        OFFSET -7.655422 -40.314453 5.070196
        CHANNELS 3 Zrotation Xrotation Yrotation
        JOINT FootLeft
        {
          OFFSET 1.787313 -8.724908 -5.701358
          CHANNELS 3 Zrotation Xrotation Yrotation
          End Site
          {
            OFFSET 0 0 0
          }
        }
      }
    }
  }
  JOINT HipRight
  {
    OFFSET 6.333794 -0.035591 0.453467
    CHANNELS 3 Zrotation Xrotation Yrotation
    JOINT KneeRight
    {
      OFFSET -6.191311 -36.779789 3.546130
      CHANNELS 3 Zrotation Xrotation Yrotation
      JOINT AnkleRight
      {
        OFFSET -6.413523 -35.853282 7.133366
        CHANNELS 3 Zrotation Xrotation Yrotation
        JOINT FootRight
        {
          OFFSET 2.039425 -8.330700 -6.261534
          CHANNELS 3 Zrotation Xrotation Yrotation
          End Site
          {
            OFFSET 0 0 0
          }
        }
      }
    }
  }
}
MOTION
Frames: 9
Frame Time: 0.033333
-61.657889 81.524465 340.128727 -0.637199 -6.790508 -36.877301 0.552217 -0.215633 36.862622 -0.102421 0.065014 0.031609 1.792919 6.102343 0.179552 0.000000 0.000000 0.000000 -5.430964 8.619937 1.251171 50.059934 -13.566172 -4.607002 -6.295614 -58.274284 14.557347 -3.712987 63.513200 6.324400 0.000000 0.000000 0.000000 0.000000 0.000000 0.000000 -1.173634 -3.637987 -0.943164 3.583974 -3.787016 0.039325 3.513222 12.234612 -1.236112 -2.780988 -11.804537 0.537791 0.000000 0.000000 0.000000 0.000000 0.000000 0.000000 -7.844667 16.431278 34.344802 -4.848616 -12.652641 2.733974 10.691023 17.129903 -3.170081 0.000000 0.000000 0.000000 4.915196 5.033391 37.790299 -3.742951 -2.642683 0.684944 -0.956059 8.492435 -3.067448 0.000000 0.000000 0.000000
-62.267404 81.962129 338.258033 0.028601 -7.928933 -37.533685 0.509438 -0.166014 37.587852 -0.163938 0.174749 0.066124 2.192997 6.747928 0.141615 0.000000 0.000000 0.000000 -4.822642 6.013296 1.731763 45.920782 -9.968230 -7.958011 -14.299379 -75.211459 10.730811 28.036520 78.883664 -19.924179 0.000000 0.000000 0.000000 0.000000 0.000000 0.000000 -0.940448 -4.157005 -0.952242 2.256061 -3.102532 0.199536 3.635593 13.988076 -1.487325 -2.847358 -15.350281 0.851574 0.000000 0.000000 0.000000 0.000000 0.000000 0.000000 -8.475587 15.684124 35.398684 -4.056474 -12.651184 2.912361 12.962723 19.280799 -5.818760 0.000000 0.000000 0.000000 3.847812 5.133620 38.580733 -2.632034 -3.342293 1.020796 -4.003104 5.679875 -2.629536 0.000000 0.000000 0.000000
-62.799160 82.480438 336.601358 0.589652 -9.029127 -38.288992 0.600151 -0.258742 38.414888 -0.187579 0.124233 0.101097 3.073052 6.544128 0.481882 0.000000 0.000000 0.000000 -3.816697 5.207104 1.845510 43.546207 -6.736275 -10.026692 -17.260367 -80.866607 7.872555 77.114339 85.699870 -68.248671 0.000000 0.000000 0.000000 0.000000 0.000000 0.000000 -0.709803 -4.238380 -0.959327 1.287290 -2.438297 0.288278 3.664097 15.478662 -1.676003 -2.914443 -19.681617 1.168112 0.000000 0.000000 0.000000 0.000000 0.000000 0.000000 -9.171223 14.926105 36.581361 -3.412683 -12.142188 2.894033 16.533096 19.783183 -9.242073 0.000000 0.000000 0.000000 3.069190 5.337281 39.477084 -1.782469 -3.538233 1.234418 -1.186718 9.157483 -5.413775 0.000000 0.000000 0.000000
-63.136359 83.043201 335.495208 1.049427 -10.190212 -38.793257 0.644061 -0.314371 38.990437 -0.187691 0.073705 0.131542 3.965465 6.325661 0.827028 0.000000 0.000000 0.000000 -2.989983 5.431307 1.786667 43.458148 -4.109062 -11.564237 13.231535 -78.120379 32.193268 -173.466138 82.556481 175.544915 0.000000 0.000000 0.000000 0.000000 0.000000 0.000000 -0.701247 -3.900343 -0.978154 1.113076 -1.952819 0.210899 2.631964 17.041163 -1.437539 -2.302692 -21.538846 1.232273 0.000000 0.000000 0.000000 0.000000 0.000000 0.000000 -9.981852 14.531537 37.484499 -2.952403 -11.425438 2.771214 17.197261 19.356432 -10.171075 0.000000 0.000000 0.000000 2.214059 5.943460 40.057936 -1.157815 -3.655014 1.395148 -0.102199 10.074242 -7.079404 0.000000 0.000000 0.000000
-63.465524 83.515816 334.225756 1.522194 -11.259352 -39.206903 0.595289 -0.323598 39.485920 -0.181403 0.040171 0.158795 4.914844 6.213087 1.042820 0.000000 0.000000 0.000000 -1.854128 5.542652 1.592235 44.310685 -0.628925 -13.603590 15.379115 -57.182392 24.899908 -49.309755 74.351262 39.463929 0.000000 0.000000 0.000000 0.000000 0.000000 0.000000 -0.871891 -4.113052 -1.032281 1.079552 -0.803599 0.166527 3.771031 17.005270 -1.999025 -2.329332 -21.673242 1.311939 0.000000 0.000000 0.000000 0.000000 0.000000 0.000000 -10.653226 13.925405 38.328969 -2.447780 -10.672946 2.617589 16.399323 19.350439 -10.000982 0.000000 0.000000 0.000000 1.797694 6.186818 40.633820 -0.697622 -3.187128 1.416966 0.212035 11.568998 -7.814201 0.000000 0.000000 0.000000
-63.647591 83.894810 333.355645 1.806718 -11.998663 -39.666782 0.443663 -0.268721 40.002441 -0.165785 0.021398 0.172000 6.474382 5.364391 1.366509 0.000000 0.000000 0.000000 -0.901178 6.338799 1.189631 46.496212 1.021225 -14.735510 9.643041 -33.100358 15.318869 -36.330901 46.387111 17.957532 0.000000 0.000000 0.000000 0.000000 0.000000 0.000000 -1.121776 -4.464302 -1.089695 1.046656 0.592007 0.221087 6.882103 15.485929 -3.245378 -5.414275 -17.213514 1.640116 0.000000 0.000000 0.000000 0.000000 0.000000 0.000000 -11.184588 13.389669 39.126038 -2.051892 -10.050010 2.456702 22.649216 22.624633 -14.608680 0.000000 0.000000 0.000000 1.521947 6.556316 41.175731 -0.430821 -2.967691 1.454792 -0.481873 12.272015 -7.643562 0.000000 0.000000 0.000000
-63.822725 84.180378 332.402985 1.948111 -12.551480 -39.563995 0.280380 -0.247079 39.937542 -0.139537 -0.043188 0.177467 7.570546 4.521637 1.744920 0.000000 0.000000 0.000000 -0.679379 7.609965 0.888414 51.219412 1.962436 -15.932638 6.719440 -13.497654 10.394078 -38.803295 27.344834 10.222387 0.000000 0.000000 0.000000 0.000000 0.000000 0.000000 -1.231717 -5.145642 -1.161708 1.158583 1.729297 0.231168 10.623259 16.630859 -5.340125 -9.953627 -14.955768 2.569819 0.000000 0.000000 0.000000 0.000000 0.000000 0.000000 -11.121324 12.947411 39.293524 -1.923220 -9.322284 2.249463 26.608604 25.059326 -17.589571 0.000000 0.000000 0.000000 1.893025 6.735275 41.161354 -0.526977 -2.344737 1.366320 -2.746596 12.106832 -6.077087 0.000000 0.000000 0.000000
-63.962219 84.369852 331.721140 2.183907 -13.204125 -39.348973 0.374632 -0.346004 39.776880 -0.143897 -0.103696 0.196244 8.333479 4.907613 1.679829 0.000000 0.000000 0.000000 0.776838 8.503438 0.282001 53.378987 3.451546 -17.391564 0.234796 -3.619973 8.136441 -33.251919 14.648060 4.943499 0.000000 0.000000 0.000000 0.000000 0.000000 0.000000 -1.752566 -4.971689 -1.216889 1.386074 2.564928 0.270408 14.638852 16.370092 -7.281731 -13.980675 -16.281283 3.489633 0.000000 0.000000 0.000000 0.000000 0.000000 0.000000 -11.562681 12.762315 39.347473 -1.567846 -9.108860 2.175884 22.890783 22.780074 -15.183162 0.000000 0.000000 0.000000 1.655144 7.324227 40.962036 -0.421901 -2.633986 1.503396 -4.919892 11.366422 -4.942860 0.000000 0.000000 0.000000
-64.026453 84.429123 331.452245 2.332144 -13.768188 -38.757900 0.426185 -0.420296 39.226735 -0.135902 -0.187292 0.209962 9.189434 5.083476 1.659733 0.000000 0.000000 0.000000 1.099470 11.150013 -0.456430 57.889948 2.581482 -16.954730 -5.446672 1.581781 7.438628 -32.781038 7.209030 2.996860 0.000000 0.000000 0.000000 0.000000 0.000000 0.000000 -2.272002 -4.568826 -1.253208 1.774917 2.874283 0.266062 17.454001 16.736919 -8.814869 -15.957423 -18.395823 4.020565 0.000000 0.000000 0.000000 0.000000 0.000000 0.000000 -12.401429 13.097880 38.934241 -0.935152 -9.690450 2.324633 26.775032 24.984380 -18.318999 0.000000 0.000000 0.000000 1.376151 8.170002 40.306914 -0.482228 -3.280951 1.704410 -7.051185 10.317430 -3.761863 0.000000 0.000000 0.000000
